<mxfile host="app.diagrams.net" agent="Mozilla/5.0 (Windows NT 10.0; Win64; x64) AppleWebKit/537.36 (KHTML, like Gecko) Chrome/131.0.0.0 Safari/537.36" version="25.0.3">
  <diagram name="Pàgina-1" id="J5MT5u0cnqmtdoeKDXBp">
    <mxGraphModel grid="1" page="1" gridSize="10" guides="1" tooltips="1" connect="1" arrows="1" fold="1" pageScale="1" pageWidth="827" pageHeight="1169" math="0" shadow="0">
      <root>
        <mxCell id="0" />
        <mxCell id="1" parent="0" />
        <mxCell id="YSmV0z2IGiSbIrHoT9tL-1" style="rounded=0;orthogonalLoop=1;jettySize=auto;html=1;exitX=1;exitY=0;exitDx=0;exitDy=0;entryX=0;entryY=1;entryDx=0;entryDy=0;" edge="1" parent="1" source="YSmV0z2IGiSbIrHoT9tL-3" target="YSmV0z2IGiSbIrHoT9tL-8">
          <mxGeometry relative="1" as="geometry" />
        </mxCell>
        <mxCell id="YSmV0z2IGiSbIrHoT9tL-2" value="0..1" style="edgeLabel;html=1;align=center;verticalAlign=middle;resizable=0;points=[];" connectable="0" vertex="1" parent="YSmV0z2IGiSbIrHoT9tL-1">
          <mxGeometry x="-0.8849" y="2" relative="1" as="geometry">
            <mxPoint x="-22" y="4" as="offset" />
          </mxGeometry>
        </mxCell>
        <mxCell id="YSmV0z2IGiSbIrHoT9tL-3" value="Habitacio" style="swimlane;fontStyle=0;align=center;verticalAlign=top;childLayout=stackLayout;horizontal=1;startSize=26;horizontalStack=0;resizeParent=1;resizeLast=0;collapsible=1;marginBottom=0;rounded=0;shadow=0;strokeWidth=1;" vertex="1" parent="1">
          <mxGeometry x="-360" y="720" width="160" height="50" as="geometry">
            <mxRectangle x="230" y="140" width="160" height="26" as="alternateBounds" />
          </mxGeometry>
        </mxCell>
        <mxCell id="YSmV0z2IGiSbIrHoT9tL-4" style="rounded=0;orthogonalLoop=1;jettySize=auto;html=1;exitX=1;exitY=0.5;exitDx=0;exitDy=0;entryX=0;entryY=0.5;entryDx=0;entryDy=0;" edge="1" parent="1" source="YSmV0z2IGiSbIrHoT9tL-16" target="YSmV0z2IGiSbIrHoT9tL-8">
          <mxGeometry relative="1" as="geometry">
            <mxPoint x="-210" y="520" as="sourcePoint" />
          </mxGeometry>
        </mxCell>
        <mxCell id="YSmV0z2IGiSbIrHoT9tL-5" value="*" style="edgeLabel;html=1;align=center;verticalAlign=middle;resizable=0;points=[];" connectable="0" vertex="1" parent="YSmV0z2IGiSbIrHoT9tL-4">
          <mxGeometry x="-0.8307" relative="1" as="geometry">
            <mxPoint x="-3" y="-11" as="offset" />
          </mxGeometry>
        </mxCell>
        <mxCell id="YSmV0z2IGiSbIrHoT9tL-6" style="rounded=0;orthogonalLoop=1;jettySize=auto;html=1;exitX=0.088;exitY=-0.02;exitDx=0;exitDy=0;entryX=1;entryY=1;entryDx=0;entryDy=0;exitPerimeter=0;" edge="1" parent="1" source="YSmV0z2IGiSbIrHoT9tL-44" target="YSmV0z2IGiSbIrHoT9tL-8">
          <mxGeometry relative="1" as="geometry">
            <mxPoint x="20" y="460" as="targetPoint" />
            <mxPoint x="502" y="931" as="sourcePoint" />
          </mxGeometry>
        </mxCell>
        <mxCell id="YSmV0z2IGiSbIrHoT9tL-7" value="*" style="edgeLabel;html=1;align=center;verticalAlign=middle;resizable=0;points=[];" connectable="0" vertex="1" parent="YSmV0z2IGiSbIrHoT9tL-6">
          <mxGeometry x="-0.9381" y="-2" relative="1" as="geometry">
            <mxPoint x="16" y="12" as="offset" />
          </mxGeometry>
        </mxCell>
        <mxCell id="YSmV0z2IGiSbIrHoT9tL-8" value="" style="rhombus;whiteSpace=wrap;html=1;verticalAlign=top;fontStyle=2;startSize=26;rounded=0;shadow=0;strokeWidth=1;" vertex="1" parent="1">
          <mxGeometry x="-35" y="480" width="30" height="30" as="geometry" />
        </mxCell>
        <mxCell id="YSmV0z2IGiSbIrHoT9tL-9" style="edgeStyle=none;curved=1;rounded=0;orthogonalLoop=1;jettySize=auto;html=1;exitX=0.5;exitY=0;exitDx=0;exitDy=0;fontSize=12;startSize=8;endSize=8;dashed=1;entryX=0.5;entryY=1;entryDx=0;entryDy=0;" edge="1" parent="1" source="YSmV0z2IGiSbIrHoT9tL-8" target="YSmV0z2IGiSbIrHoT9tL-39">
          <mxGeometry relative="1" as="geometry">
            <mxPoint x="20" y="672" as="sourcePoint" />
            <mxPoint x="-39.960000000000036" y="340.6640000000002" as="targetPoint" />
          </mxGeometry>
        </mxCell>
        <mxCell id="YSmV0z2IGiSbIrHoT9tL-10" value="Distribució" style="swimlane;fontStyle=0;childLayout=stackLayout;horizontal=1;startSize=30;horizontalStack=0;resizeParent=1;resizeParentMax=0;resizeLast=0;collapsible=1;marginBottom=0;whiteSpace=wrap;html=1;" vertex="1" parent="1">
          <mxGeometry x="300" y="205" width="160" height="92" as="geometry" />
        </mxCell>
        <mxCell id="YSmV0z2IGiSbIrHoT9tL-11" value="- nom: String" style="text;align=left;verticalAlign=top;spacingLeft=4;spacingRight=4;overflow=hidden;rotatable=0;points=[[0,0.5],[1,0.5]];portConstraint=eastwest;rounded=0;shadow=0;html=0;" vertex="1" parent="YSmV0z2IGiSbIrHoT9tL-10">
          <mxGeometry y="30" width="160" height="30" as="geometry" />
        </mxCell>
        <mxCell id="YSmV0z2IGiSbIrHoT9tL-13" value="- visible: bool" style="text;align=left;verticalAlign=top;spacingLeft=4;spacingRight=4;overflow=hidden;rotatable=0;points=[[0,0.5],[1,0.5]];portConstraint=eastwest;rounded=0;shadow=0;html=0;" vertex="1" parent="YSmV0z2IGiSbIrHoT9tL-10">
          <mxGeometry y="60" width="160" height="30" as="geometry" />
        </mxCell>
        <mxCell id="YSmV0z2IGiSbIrHoT9tL-14" value="&#xa;" style="text;align=left;verticalAlign=top;spacingLeft=4;spacingRight=4;overflow=hidden;rotatable=0;points=[[0,0.5],[1,0.5]];portConstraint=eastwest;rounded=0;shadow=0;html=0;" vertex="1" parent="YSmV0z2IGiSbIrHoT9tL-10">
          <mxGeometry y="90" width="160" height="2" as="geometry" />
        </mxCell>
        <mxCell id="YSmV0z2IGiSbIrHoT9tL-15" value="" style="group" connectable="0" vertex="1" parent="1">
          <mxGeometry x="-413" y="480" width="200" height="90" as="geometry" />
        </mxCell>
        <mxCell id="YSmV0z2IGiSbIrHoT9tL-16" value="Moble" style="swimlane;fontStyle=0;align=center;verticalAlign=top;childLayout=stackLayout;horizontal=1;startSize=26;horizontalStack=0;resizeParent=1;resizeLast=0;collapsible=1;marginBottom=0;rounded=0;shadow=0;strokeWidth=1;" vertex="1" parent="YSmV0z2IGiSbIrHoT9tL-15">
          <mxGeometry y="10.180995475113122" width="200" height="83.41" as="geometry">
            <mxRectangle x="320" y="590" width="160" height="26" as="alternateBounds" />
          </mxGeometry>
        </mxCell>
        <mxCell id="YSmV0z2IGiSbIrHoT9tL-17" value="- nom: String&#xa;" style="text;align=left;verticalAlign=top;spacingLeft=4;spacingRight=4;overflow=hidden;rotatable=0;points=[[0,0.5],[1,0.5]];portConstraint=eastwest;rounded=0;shadow=0;html=0;" vertex="1" parent="YSmV0z2IGiSbIrHoT9tL-16">
          <mxGeometry y="26" width="200" height="24" as="geometry" />
        </mxCell>
        <mxCell id="YSmV0z2IGiSbIrHoT9tL-22" value="- vertexDelMoble: set(float[3])" style="text;align=left;verticalAlign=top;spacingLeft=4;spacingRight=4;overflow=hidden;rotatable=0;points=[[0,0.5],[1,0.5]];portConstraint=eastwest;rounded=0;shadow=0;html=0;" vertex="1" parent="YSmV0z2IGiSbIrHoT9tL-16">
          <mxGeometry y="50" width="200" height="33.41" as="geometry" />
        </mxCell>
        <mxCell id="YSmV0z2IGiSbIrHoT9tL-23" style="rounded=0;orthogonalLoop=1;jettySize=auto;html=1;exitX=0;exitY=0.5;exitDx=0;exitDy=0;entryX=1;entryY=0.5;entryDx=0;entryDy=0;" edge="1" parent="1" target="YSmV0z2IGiSbIrHoT9tL-39">
          <mxGeometry relative="1" as="geometry">
            <mxPoint x="81" y="280" as="targetPoint" />
            <mxPoint x="300" y="280" as="sourcePoint" />
          </mxGeometry>
        </mxCell>
        <mxCell id="YSmV0z2IGiSbIrHoT9tL-24" value="*" style="edgeLabel;html=1;align=center;verticalAlign=middle;resizable=0;points=[];" connectable="0" vertex="1" parent="YSmV0z2IGiSbIrHoT9tL-23">
          <mxGeometry x="-0.8161" y="-1" relative="1" as="geometry">
            <mxPoint x="13" y="-7" as="offset" />
          </mxGeometry>
        </mxCell>
        <mxCell id="YSmV0z2IGiSbIrHoT9tL-25" value="1..*" style="edgeLabel;html=1;align=center;verticalAlign=middle;resizable=0;points=[];" connectable="0" vertex="1" parent="YSmV0z2IGiSbIrHoT9tL-23">
          <mxGeometry x="0.8832" y="2" relative="1" as="geometry">
            <mxPoint y="-13" as="offset" />
          </mxGeometry>
        </mxCell>
        <mxCell id="YSmV0z2IGiSbIrHoT9tL-26" value="està formada per" style="edgeLabel;html=1;align=center;verticalAlign=middle;resizable=0;points=[];" connectable="0" vertex="1" parent="YSmV0z2IGiSbIrHoT9tL-23">
          <mxGeometry x="-0.0405" y="3" relative="1" as="geometry">
            <mxPoint x="-27" y="10" as="offset" />
          </mxGeometry>
        </mxCell>
        <mxCell id="YSmV0z2IGiSbIrHoT9tL-27" value="OrientacióAL&#39;Espai" style="swimlane;fontStyle=0;childLayout=stackLayout;horizontal=1;startSize=30;horizontalStack=0;resizeParent=1;resizeParentMax=0;resizeLast=0;collapsible=1;marginBottom=0;whiteSpace=wrap;html=1;" vertex="1" parent="1">
          <mxGeometry x="200" y="490" width="140" height="120" as="geometry" />
        </mxCell>
        <mxCell id="YSmV0z2IGiSbIrHoT9tL-28" value="x: float" style="text;strokeColor=none;fillColor=none;align=left;verticalAlign=middle;spacingLeft=4;spacingRight=4;overflow=hidden;points=[[0,0.5],[1,0.5]];portConstraint=eastwest;rotatable=0;whiteSpace=wrap;html=1;" vertex="1" parent="YSmV0z2IGiSbIrHoT9tL-27">
          <mxGeometry y="30" width="140" height="30" as="geometry" />
        </mxCell>
        <mxCell id="YSmV0z2IGiSbIrHoT9tL-29" value="y: float" style="text;strokeColor=none;fillColor=none;align=left;verticalAlign=middle;spacingLeft=4;spacingRight=4;overflow=hidden;points=[[0,0.5],[1,0.5]];portConstraint=eastwest;rotatable=0;whiteSpace=wrap;html=1;" vertex="1" parent="YSmV0z2IGiSbIrHoT9tL-27">
          <mxGeometry y="60" width="140" height="30" as="geometry" />
        </mxCell>
        <mxCell id="YSmV0z2IGiSbIrHoT9tL-30" value="z: float" style="text;strokeColor=none;fillColor=none;align=left;verticalAlign=middle;spacingLeft=4;spacingRight=4;overflow=hidden;points=[[0,0.5],[1,0.5]];portConstraint=eastwest;rotatable=0;whiteSpace=wrap;html=1;" vertex="1" parent="YSmV0z2IGiSbIrHoT9tL-27">
          <mxGeometry y="90" width="140" height="30" as="geometry" />
        </mxCell>
        <mxCell id="YSmV0z2IGiSbIrHoT9tL-31" value="PuntAL&#39;Espai" style="swimlane;fontStyle=0;childLayout=stackLayout;horizontal=1;startSize=30;horizontalStack=0;resizeParent=1;resizeParentMax=0;resizeLast=0;collapsible=1;marginBottom=0;whiteSpace=wrap;html=1;" vertex="1" parent="1">
          <mxGeometry x="-29.999999999999986" y="722" width="140" height="120" as="geometry" />
        </mxCell>
        <mxCell id="YSmV0z2IGiSbIrHoT9tL-32" value="x: float" style="text;strokeColor=none;fillColor=none;align=left;verticalAlign=middle;spacingLeft=4;spacingRight=4;overflow=hidden;points=[[0,0.5],[1,0.5]];portConstraint=eastwest;rotatable=0;whiteSpace=wrap;html=1;" vertex="1" parent="YSmV0z2IGiSbIrHoT9tL-31">
          <mxGeometry y="30" width="140" height="30" as="geometry" />
        </mxCell>
        <mxCell id="YSmV0z2IGiSbIrHoT9tL-33" value="y: float" style="text;strokeColor=none;fillColor=none;align=left;verticalAlign=middle;spacingLeft=4;spacingRight=4;overflow=hidden;points=[[0,0.5],[1,0.5]];portConstraint=eastwest;rotatable=0;whiteSpace=wrap;html=1;" vertex="1" parent="YSmV0z2IGiSbIrHoT9tL-31">
          <mxGeometry y="60" width="140" height="30" as="geometry" />
        </mxCell>
        <mxCell id="YSmV0z2IGiSbIrHoT9tL-34" value="z: float" style="text;strokeColor=none;fillColor=none;align=left;verticalAlign=middle;spacingLeft=4;spacingRight=4;overflow=hidden;points=[[0,0.5],[1,0.5]];portConstraint=eastwest;rotatable=0;whiteSpace=wrap;html=1;" vertex="1" parent="YSmV0z2IGiSbIrHoT9tL-31">
          <mxGeometry y="90" width="140" height="30" as="geometry" />
        </mxCell>
        <mxCell id="YSmV0z2IGiSbIrHoT9tL-35" style="rounded=0;orthogonalLoop=1;jettySize=auto;html=1;exitX=0;exitY=0.5;exitDx=0;exitDy=0;entryX=1;entryY=0.5;entryDx=0;entryDy=0;" edge="1" parent="1" source="YSmV0z2IGiSbIrHoT9tL-28" target="YSmV0z2IGiSbIrHoT9tL-8">
          <mxGeometry relative="1" as="geometry">
            <mxPoint x="30" y="428" as="targetPoint" />
          </mxGeometry>
        </mxCell>
        <mxCell id="YSmV0z2IGiSbIrHoT9tL-36" value="*" style="edgeLabel;html=1;align=center;verticalAlign=middle;resizable=0;points=[];" connectable="0" vertex="1" parent="YSmV0z2IGiSbIrHoT9tL-35">
          <mxGeometry x="-0.7621" y="2" relative="1" as="geometry">
            <mxPoint y="19" as="offset" />
          </mxGeometry>
        </mxCell>
        <mxCell id="YSmV0z2IGiSbIrHoT9tL-37" style="rounded=0;orthogonalLoop=1;jettySize=auto;html=1;entryX=0.5;entryY=1;entryDx=0;entryDy=0;exitX=0.192;exitY=0;exitDx=0;exitDy=0;exitPerimeter=0;" edge="1" parent="1" source="YSmV0z2IGiSbIrHoT9tL-31" target="YSmV0z2IGiSbIrHoT9tL-8">
          <mxGeometry relative="1" as="geometry">
            <mxPoint x="-20" y="710" as="targetPoint" />
            <mxPoint x="34" y="730" as="sourcePoint" />
          </mxGeometry>
        </mxCell>
        <mxCell id="YSmV0z2IGiSbIrHoT9tL-38" value="*" style="edgeLabel;html=1;align=center;verticalAlign=middle;resizable=0;points=[];" connectable="0" vertex="1" parent="YSmV0z2IGiSbIrHoT9tL-37">
          <mxGeometry x="-0.7293" y="3" relative="1" as="geometry">
            <mxPoint x="-3" y="19" as="offset" />
          </mxGeometry>
        </mxCell>
        <mxCell id="YSmV0z2IGiSbIrHoT9tL-39" value="MobleCol·locat" style="swimlane;fontStyle=0;childLayout=stackLayout;horizontal=1;startSize=30;horizontalStack=0;resizeParent=1;resizeParentMax=0;resizeLast=0;collapsible=1;marginBottom=0;whiteSpace=wrap;html=1;" vertex="1" parent="1">
          <mxGeometry x="-90" y="250" width="140" height="60" as="geometry" />
        </mxCell>
        <mxCell id="YSmV0z2IGiSbIrHoT9tL-40" style="edgeStyle=none;curved=1;rounded=0;orthogonalLoop=1;jettySize=auto;html=1;fontSize=12;startSize=8;endSize=8;dashed=1;entryX=0.5;entryY=1;entryDx=0;entryDy=0;" edge="1" parent="1" target="YSmV0z2IGiSbIrHoT9tL-41">
          <mxGeometry relative="1" as="geometry">
            <mxPoint x="141" y="278" as="sourcePoint" />
            <mxPoint x="141" y="135" as="targetPoint" />
          </mxGeometry>
        </mxCell>
        <mxCell id="YSmV0z2IGiSbIrHoT9tL-41" value="MobleDistribució" style="swimlane;fontStyle=0;childLayout=stackLayout;horizontal=1;startSize=30;horizontalStack=0;resizeParent=1;resizeParentMax=0;resizeLast=0;collapsible=1;marginBottom=0;whiteSpace=wrap;html=1;" vertex="1" parent="1">
          <mxGeometry x="70" y="90" width="140" height="60" as="geometry" />
        </mxCell>
        <mxCell id="YSmV0z2IGiSbIrHoT9tL-42" value="- visible: bool" style="text;align=left;verticalAlign=top;spacingLeft=4;spacingRight=4;overflow=hidden;rotatable=0;points=[[0,0.5],[1,0.5]];portConstraint=eastwest;rounded=0;shadow=0;html=0;" vertex="1" parent="YSmV0z2IGiSbIrHoT9tL-41">
          <mxGeometry y="30" width="140" height="30" as="geometry" />
        </mxCell>
        <mxCell id="YSmV0z2IGiSbIrHoT9tL-43" value="*" style="edgeLabel;html=1;align=center;verticalAlign=middle;resizable=0;points=[];" connectable="0" vertex="1" parent="1">
          <mxGeometry x="222.6493773837101" y="683.8789294444709" as="geometry" />
        </mxCell>
        <mxCell id="YSmV0z2IGiSbIrHoT9tL-44" value="Visita" style="swimlane;fontStyle=2;align=center;verticalAlign=top;childLayout=stackLayout;horizontal=1;startSize=26;horizontalStack=0;resizeParent=1;resizeLast=0;collapsible=1;marginBottom=0;rounded=0;shadow=0;strokeWidth=1;" vertex="1" parent="1">
          <mxGeometry x="200" y="690" width="160" height="50" as="geometry">
            <mxRectangle x="230" y="140" width="160" height="26" as="alternateBounds" />
          </mxGeometry>
        </mxCell>
      </root>
    </mxGraphModel>
  </diagram>
</mxfile>
